<svg height="512" viewBox="0 0 128 128" width="512" xmlns="http://www.w3.org/2000/svg"><g id="icon"><path d="m84.288 54.421-12.521 10.769h-28.439l28.98-13.417a4.64 4.64 0 0 1 2.5-.384l8.919 1.142a1.079 1.079 0 0 1 .561 1.89z" fill="#4fa4d1"/><path d="m71.767 66.19h-28.439a1 1 0 0 1 -.42-1.907l28.98-13.417a5.647 5.647 0 0 1 3.046-.469l8.92 1.143a2.079 2.079 0 0 1 1.087 3.639l-12.523 10.77a1 1 0 0 1 -.651.241zm-23.9-2h23.533l12.235-10.526a.074.074 0 0 0 .027-.088l-8.98-1.2a3.623 3.623 0 0 0 -1.959.3z" fill="#2f3a5a"/><path d="m125.809 49.283-6.123 15.907h-17.286l15.918-16.744a3.645 3.645 0 0 1 2.628-1.132h3.514a1.45 1.45 0 0 1 1.349 1.969z" fill="#4fa4d1"/><path d="m119.686 66.19h-17.286a1 1 0 0 1 -.724-1.689l15.917-16.744a4.673 4.673 0 0 1 3.353-1.443h3.514a2.449 2.449 0 0 1 2.282 3.328l-6.123 15.908a1 1 0 0 1 -.933.64zm-14.955-2h14.269l5.876-15.267a.441.441 0 0 0 -.05-.415.436.436 0 0 0 -.366-.194h-3.514a2.658 2.658 0 0 0 -1.906.824z" fill="#2f3a5a"/><path d="m121.545 65.189h-101.573a24.455 24.455 0 0 0 -10.951 2.6 15.239 15.239 0 0 0 -4.589 3.689s-3.856 1.377-2.532 4.292 13.286 6.591 28.432 6.591h43.312l48.525-12.084a2.582 2.582 0 0 0 -.624-5.088z" fill="#dbe2eb"/><path d="m124.126 67.769a2.584 2.584 0 0 1 -1.959 2.511l-48.52 12.078h-43.313c-15.149 0-27.1-3.672-28.428-6.586a2.483 2.483 0 0 1 -.006-2.272c3.918 2.529 14.293 5.059 26.873 5.059h43.309l48.518-12.079a2.507 2.507 0 0 0 1.594-1.2 2.566 2.566 0 0 1 1.932 2.489z" fill="#c8cbd2"/><path d="m73.019 83.361h-43.309c-14.128 0-27.564-3.286-29.341-7.176a3.532 3.532 0 0 1 -.1-2.9 5.586 5.586 0 0 1 2.931-2.645 16.32 16.32 0 0 1 4.723-3.74 25.253 25.253 0 0 1 11.453-2.71h101.543a3.583 3.583 0 0 1 .866 7.059l-48.525 12.083a.981.981 0 0 1 -.241.029zm-53.836-17.173a23.61 23.61 0 0 0 -10.316 2.478 14.253 14.253 0 0 0 -4.291 3.444 1.014 1.014 0 0 1 -.435.307 3.863 3.863 0 0 0 -2.035 1.648 1.533 1.533 0 0 0 .082 1.29c.931 2.038 11.49 6.006 27.522 6.006h43.19l48.4-12.054a1.583 1.583 0 0 0 -.383-3.118h-101.734z" fill="#2f3a5a"/><path d="m11.618 70.376a8.974 8.974 0 0 1 -3.218-2.592 15.239 15.239 0 0 0 -4.589 3.689c1.533.947 4.189 1 7.54.509a.857.857 0 0 0 .267-1.606z" fill="#4fa4d1"/><path d="m7.67 73.294a8.285 8.285 0 0 1 -4.391-.967l-.962-.594.706-.882a16.25 16.25 0 0 1 4.9-3.948l.8-.427.505.749a7.883 7.883 0 0 0 2.86 2.266 1.857 1.857 0 0 1 -.6 3.482 26.556 26.556 0 0 1 -3.818.321zm-2.147-2.209a15.511 15.511 0 0 0 5.251-.03 10.613 10.613 0 0 1 -2.625-1.981 14.475 14.475 0 0 0 -2.626 2.011z" fill="#2f3a5a"/><rect fill="#bac2d3" height="8.373" rx=".633" width="5.625" x="19.999" y="68.653"/><path d="m126.828 77.162-9.506-8.176-14.664.733 18.689 8.65a2.09 2.09 0 0 0 1.145.177l4.077-.522a.492.492 0 0 0 .259-.862z" fill="#4fa4d1"/><path d="m122.225 79.563a3.09 3.09 0 0 1 -1.3-.286l-18.69-8.651a1 1 0 0 1 .37-1.906l14.664-.733a.985.985 0 0 1 .7.241l9.511 8.172a1.492 1.492 0 0 1 -.784 2.612l-4.077.522a3.065 3.065 0 0 1 -.394.029zm-15.466-9.045 15.008 6.947a1.1 1.1 0 0 0 .6.092l2.948-.377-8.342-7.18z" fill="#2f3a5a"/><path d="m39.952 37.362c.011-.141.022-.282.022-.426a5.473 5.473 0 0 0 -8.443-4.6 5.9 5.9 0 0 0 -10.856 4.31 6.09 6.09 0 1 0 6.354 9.967 4.853 4.853 0 0 0 7.544.19 5.652 5.652 0 1 0 5.379-9.438z" fill="#dbe2eb"/><path d="m44.273 42.855a5.652 5.652 0 0 1 -9.7 3.947 4.86 4.86 0 0 1 -7.55-.2 6.094 6.094 0 0 1 -10.188-6.142 6.088 6.088 0 0 0 10.188 2.284 4.869 4.869 0 0 0 7.55.187 5.649 5.649 0 0 0 9.352-2.018 5.473 5.473 0 0 1 .348 1.942z" fill="#c8cbd2"/><path d="m38.619 49.507a6.589 6.589 0 0 1 -4.01-1.344 5.854 5.854 0 0 1 -7.64-.151 7.013 7.013 0 0 1 -4.351 1.495 7.091 7.091 0 0 1 -3.065-13.486 6.46 6.46 0 0 1 -.043-.743 6.9 6.9 0 0 1 12.341-4.254 6.475 6.475 0 0 1 9.115 5.6 6.653 6.653 0 0 1 -2.347 12.878zm-4.046-3.707a1 1 0 0 1 .716.3 4.652 4.652 0 1 0 4.428-7.768 1 1 0 0 1 -.762-1.047c.009-.117.019-.233.019-.351a4.475 4.475 0 0 0 -6.9-3.763 1 1 0 0 1 -1.408-.34 4.9 4.9 0 0 0 -9.017 3.579 1 1 0 0 1 -.654 1.178 5.091 5.091 0 1 0 5.311 8.331 1.027 1.027 0 0 1 .776-.309 1 1 0 0 1 .738.39 3.854 3.854 0 0 0 5.993.15 1 1 0 0 1 .727-.35z" fill="#2f3a5a"/><path d="m114.729 93.667c.007-.094.014-.187.014-.283a3.629 3.629 0 0 0 -5.6-3.052 3.912 3.912 0 0 0 -7.2 2.858 4.039 4.039 0 1 0 4.213 6.61 3.219 3.219 0 0 0 5 .125 3.748 3.748 0 1 0 3.567-6.258z" fill="#dbe2eb"/><path d="m117.594 97.309a3.749 3.749 0 0 1 -6.43 2.618 3.224 3.224 0 0 1 -5.007-.131 4.041 4.041 0 0 1 -6.757-4.073 4.037 4.037 0 0 0 6.756 1.515 3.228 3.228 0 0 0 5.007.123 3.745 3.745 0 0 0 6.2-1.338 3.61 3.61 0 0 1 .231 1.286z" fill="#c8cbd2"/><path d="m113.844 102.058a4.706 4.706 0 0 1 -2.651-.809 4.334 4.334 0 0 1 -5.088-.091 4.981 4.981 0 0 1 -2.872.9 5.04 5.04 0 0 1 -2.388-9.478c-.006-.1-.009-.2-.009-.3a4.914 4.914 0 0 1 8.621-3.228 4.63 4.63 0 0 1 6.265 3.89 4.749 4.749 0 0 1 -1.878 9.111zm-2.682-3.133a1 1 0 0 1 .715.3 2.748 2.748 0 1 0 2.616-4.588 1 1 0 0 1 -.762-1.05c.006-.068.012-.136.012-.2a2.629 2.629 0 0 0 -4.056-2.212 1 1 0 0 1 -1.409-.34 2.914 2.914 0 0 0 -5.442 1.453 2.983 2.983 0 0 0 .082.675 1 1 0 0 1 -.654 1.178 3.039 3.039 0 1 0 3.17 4.972 1 1 0 0 1 1.516.078 2.287 2.287 0 0 0 3.452.087 1 1 0 0 1 .727-.349z" fill="#2f3a5a"/><path d="m44.622 79.171a19.8 19.8 0 0 0 -8.531.045 1.748 1.748 0 0 0 -1.377 1.736l.062 4.443a1.74 1.74 0 0 0 1.289 1.666 17.874 17.874 0 0 0 8.558.007 1.758 1.758 0 0 0 1.346-1.7v-4.491a1.759 1.759 0 0 0 -1.347-1.706z" fill="#c8cbd2"/><path d="m44.622 79.171a19.8 19.8 0 0 0 -8.531.045 1.748 1.748 0 0 0 -1.377 1.736l.062 4.443a1.74 1.74 0 0 0 1.289 1.666 17.874 17.874 0 0 0 8.558.007 1.758 1.758 0 0 0 1.346-1.7v-4.491a1.759 1.759 0 0 0 -1.347-1.706z" fill="#c8cbd2"/><path d="m45.968 80.878v4.485a1.757 1.757 0 0 1 -1.345 1.7 17.879 17.879 0 0 1 -8.557 0 1.745 1.745 0 0 1 -1.29-1.667l-.015-1.088a1.694 1.694 0 0 0 .654.338 17.881 17.881 0 0 0 8.557.007 1.755 1.755 0 0 0 1.346-1.706v-3.429a1.742 1.742 0 0 1 .65 1.36z" fill="#bac2d3"/><path d="m40.265 88.585a17.664 17.664 0 0 1 -4.452-.556 2.745 2.745 0 0 1 -2.037-2.62l-.062-4.443a2.755 2.755 0 0 1 2.166-2.728 20.939 20.939 0 0 1 8.979-.039 2.753 2.753 0 0 1 2.109 2.678v4.486a2.752 2.752 0 0 1 -2.11 2.677 19.771 19.771 0 0 1 -4.593.545zm.4-8.863a21.241 21.241 0 0 0 -4.363.471.751.751 0 0 0 -.586.745l.062 4.443a.741.741 0 0 0 .541.713 16.94 16.94 0 0 0 8.069 0 .756.756 0 0 0 .583-.733v-4.484a.758.758 0 0 0 -.583-.734 15.753 15.753 0 0 0 -3.725-.421z" fill="#2f3a5a"/><path d="m86.053 93.649-20.782-17.875-32.06 1.21 40.86 19.305a4.581 4.581 0 0 0 2.5.387l8.913-1.141a1.078 1.078 0 0 0 .569-1.886z" fill="#4fa4d1"/><path d="m85.489 95.531-8.919 1.141a4.566 4.566 0 0 1 -2.5-.383l-40.861-19.3 6.506-.246 34.837 16.457a4.479 4.479 0 0 0 2.5.383l7.768-.983 1.23 1.053a1.073 1.073 0 0 1 -.561 1.878z" fill="#6bb3d9"/><path d="m75.992 97.713a5.572 5.572 0 0 1 -2.341-.516l-40.867-19.309a1 1 0 0 1 .39-1.9l32.06-1.209a1.009 1.009 0 0 1 .689.241l20.782 17.871a2.078 2.078 0 0 1 -1.091 3.636l-8.914 1.14a5.472 5.472 0 0 1 -.708.046zm-38.652-19.884 37.16 17.556a3.578 3.578 0 0 0 1.949.3l8.912-1.141.041-.136-20.485-17.619z" fill="#2f3a5a"/><g fill="#6bb3d9"><path d="m40.3 69.677v2.074a1.237 1.237 0 0 1 -1.236 1.228h-1.786a1.238 1.238 0 0 1 -1.237-1.228v-2.074a1.233 1.233 0 0 1 1.237-1.228h1.783a1.232 1.232 0 0 1 1.239 1.228z"/><rect height="4.53" rx="1.228" width="4.248" x="44.3" y="68.449"/><rect height="4.53" rx="1.228" width="4.248" x="52.556" y="68.449"/><path d="m73.318 69.677v2.074a1.238 1.238 0 0 1 -1.236 1.228h-1.782a1.237 1.237 0 0 1 -1.236-1.228v-2.074a1.232 1.232 0 0 1 1.236-1.228h1.784a1.233 1.233 0 0 1 1.234 1.228z"/><path d="m65.059 69.677v2.074a1.231 1.231 0 0 1 -1.228 1.228h-1.784a1.237 1.237 0 0 1 -1.236-1.228v-2.074a1.232 1.232 0 0 1 1.236-1.228h1.784a1.226 1.226 0 0 1 1.228 1.228z"/><rect height="4.53" rx="1.228" width="4.248" x="27.79" y="68.449"/><rect height="4.53" rx="1.228" width="4.248" x="77.321" y="68.449"/></g></g></svg>